# xmcd
#
# Track frame offsets: 
#        7222
#        21542
#        38832
#        53762
#        69255
#        83352
#        99915
#        116985
#        131467
#        149335
#        165005
#
# Disc length: 2366 seconds
#
# Revision: 2
# Processed by: cddbd v1.4PL0 Copyright (c) Steve Scherf et al.
# Submitted via: ExactAudioCopy v0.90b4
#
DISCID=9108de0b
DTITLE=Diamond Rio - IV
DYEAR=1995
DGENRE=
TTITLE0=Holdin'
TTITLE1=Walkin' Away
TTITLE2=That's What I Get For Loving You
TTITLE3=She Misses Him On Sunday The Most
TTITLE4=She Sure Did Like To Run
TTITLE5=It's All In Your Head
TTITLE6=Who Am I
TTITLE7=Love Takes You There
TTITLE8=Is That Askin' Too Much
TTITLE9=Just Another Heart
TTITLE10=Big (Instrumental)
EXTD=
EXTT0=
EXTT1=
EXTT2=
EXTT3=
EXTT4=
EXTT5=
EXTT6=
EXTT7=
EXTT8=
EXTT9=
EXTT10=
PLAYORDER=
